{"glyphs":{":":{"x_min":0,"x_max":233,"ha":233,"o":"m 154 442 q 116 442 116 479 q 116 502 130 522 q 143 541 170 541 q 206 541 206 504 q 206 482 193 462 q 180 442 154 442 z m 63 -11 q 26 -11 26 26 q 26 49 39 68 q 52 87 80 87 q 115 87 115 50 q 115 28 102 8 q 89 -11 63 -11 z"},"$":{"x_min":0,"x_max":550,"ha":550,"o":"m 178 -58 l 202 50 q 156 52 114 61 q 71 70 43 82 l 43 136 q 77 120 122 110 q 166 99 212 98 l 266 345 q 203 368 166 402 q 128 435 128 498 q 128 554 156 592 q 184 629 231 650 q 278 670 334 674 l 352 758 l 397 758 l 380 674 q 458 668 519 638 l 497 590 q 438 620 370 625 l 317 380 q 384 354 421 324 q 458 293 458 232 q 458 176 429 137 q 400 98 352 76 q 304 55 247 50 l 223 -58 z m 276 396 l 324 625 q 263 620 222 588 q 182 557 182 500 q 182 460 208 436 q 234 413 276 396 z m 258 100 q 297 103 330 118 q 363 134 384 161 q 404 188 404 227 q 404 265 379 288 q 354 310 306 329 z"},"?":{"x_min":0,"x_max":416,"ha":416,"o":"m 124 188 q 132 238 148 271 q 164 304 189 330 q 214 356 251 384 q 284 409 314 434 q 343 458 362 488 q 380 518 380 562 q 380 614 350 644 q 320 674 267 674 q 233 674 198 664 q 164 653 129 637 l 108 682 q 192 724 272 724 q 348 724 393 682 q 438 641 438 568 q 438 520 420 484 q 402 447 368 416 q 335 384 290 352 q 255 326 232 305 q 208 284 194 257 q 180 230 172 188 z m 116 -11 q 79 -11 79 26 q 79 49 92 68 q 105 87 132 87 q 168 87 168 50 q 168 28 155 8 q 142 -11 116 -11 z"},"<":{"x_min":0,"x_max":571,"ha":571,"o":"m 538 127 l 73 338 l 73 372 l 538 597 l 538 545 l 138 357 l 538 179 z"},"'":{"x_min":0,"x_max":196,"ha":196,"o":"m 110 456 l 152 714 l 214 714 l 148 456 z"},"=":{"x_min":0,"x_max":571,"ha":571,"o":"m 76 430 l 76 477 l 534 477 l 534 430 z m 76 228 l 76 276 l 534 276 l 534 228 z"},"a":{"x_min":0,"x_max":558,"ha":558,"o":"m 195 -10 q 127 -10 88 39 q 50 88 50 176 q 50 244 68 309 q 86 374 120 427 q 155 480 204 511 q 253 542 315 542 q 356 542 384 525 q 412 508 428 482 q 445 457 453 430 l 456 430 l 486 532 l 530 532 l 418 0 l 372 0 l 392 119 l 389 119 q 369 89 340 59 q 311 29 274 10 q 238 -10 195 -10 z m 211 39 q 252 39 294 69 q 335 99 368 150 q 401 201 416 265 q 424 294 426 318 q 429 342 429 362 q 429 422 400 457 q 370 492 319 492 q 270 492 231 465 q 192 438 164 392 q 137 347 122 290 q 108 233 108 174 q 108 110 134 74 q 161 39 211 39 z"},"L":{"x_min":0,"x_max":484,"ha":484,"o":"m 46 0 l 196 714 l 254 714 l 114 52 l 416 52 l 404 0 z"},"3":{"x_min":0,"x_max":550,"ha":550,"o":"m 210 -10 q 151 -10 104 2 q 58 13 22 31 l 22 87 q 55 68 106 54 q 156 39 211 39 q 305 39 358 86 q 410 133 410 208 q 410 276 366 311 q 322 346 246 346 l 175 346 l 185 394 l 257 394 q 308 394 356 413 q 404 432 435 470 q 466 507 466 565 q 466 615 433 644 q 400 674 348 674 q 298 674 254 658 q 209 641 164 610 l 136 652 q 181 684 234 704 q 288 724 352 724 q 433 724 479 681 q 525 638 525 570 q 525 516 501 474 q 477 433 436 406 q 394 380 342 370 l 342 367 q 400 356 435 315 q 470 274 470 210 q 470 150 440 100 q 411 50 353 20 q 295 -10 210 -10 z"},";":{"x_min":0,"x_max":233,"ha":233,"o":"m 154 442 q 116 442 116 479 q 116 502 129 522 q 142 541 170 541 q 205 541 205 504 q 205 482 192 462 q 180 442 154 442 z m -47 -129 q -16 -63 10 0 q 36 62 55 116 l 116 116 l 119 104 q 96 50 64 -13 q 31 -76 -2 -129 z"},"J":{"x_min":0,"x_max":252,"ha":252,"o":"m -84 -182 q -107 -182 -128 -178 q -150 -174 -163 -170 l -161 -118 q -144 -124 -124 -127 q -104 -130 -84 -130 q -30 -130 2 -97 q 34 -64 47 0 l 198 714 l 256 714 l 104 -7 q 84 -98 37 -140 q -10 -182 -84 -182 z"},"V":{"x_min":0,"x_max":544,"ha":544,"o":"m 182 0 l 99 714 l 156 714 l 214 204 q 218 170 220 134 q 223 99 224 69 l 226 69 q 239 98 255 130 q 271 162 292 203 l 563 714 l 627 714 l 242 0 z"},"\"":{"x_min":0,"x_max":351,"ha":351,"o":"m 264 456 l 308 714 l 370 714 l 302 456 z m 110 456 l 152 714 l 214 714 l 148 456 z"},"7":{"x_min":0,"x_max":550,"ha":550,"o":"m 98 0 l 489 662 l 118 662 l 128 714 l 562 714 l 554 670 l 161 0 z"},"S":{"x_min":0,"x_max":502,"ha":502,"o":"m 192 -10 q 134 -10 94 -1 q 53 8 19 23 l 19 81 q 52 64 94 52 q 136 41 192 41 q 237 41 280 56 q 324 72 352 105 q 380 138 380 192 q 380 246 345 279 q 310 312 244 347 q 208 366 178 390 q 148 413 130 446 q 111 478 111 524 q 111 592 144 636 q 177 681 230 702 q 283 724 342 724 q 398 724 437 714 q 476 703 514 684 l 492 634 q 458 651 422 662 q 386 672 342 672 q 302 672 263 658 q 224 643 198 612 q 172 580 172 528 q 172 492 187 468 q 202 444 228 426 q 253 408 286 390 q 330 365 365 340 q 400 315 420 281 q 440 247 440 196 q 440 124 405 78 q 370 33 314 12 q 257 -10 192 -10 z"},"}":{"x_min":0,"x_max":338,"ha":338,"o":"m -44 -158 l -41 -110 q 14 -109 47 -88 q 80 -68 92 -13 l 127 150 q 138 201 164 234 q 190 267 240 276 l 240 278 q 176 297 176 367 q 176 379 178 393 q 181 407 184 422 l 214 557 q 220 582 220 602 q 220 640 196 652 q 171 664 121 664 l 128 714 l 136 714 q 206 714 240 689 q 274 664 274 609 q 274 585 266 551 l 236 414 q 233 400 230 388 q 228 376 228 366 q 228 298 325 298 l 314 250 q 256 250 224 226 q 192 202 180 144 l 144 -20 q 128 -98 84 -128 q 40 -158 -37 -158 z"},"Z":{"x_min":0,"x_max":534,"ha":534,"o":"m -9 0 l 0 44 l 489 662 l 144 662 l 156 714 l 572 714 l 564 670 l 74 52 l 443 52 l 432 0 z"},"x":{"x_min":0,"x_max":469,"ha":469,"o":"m -35 0 l 200 274 l 82 532 l 142 532 l 238 314 l 422 532 l 490 532 l 263 272 l 390 0 l 330 0 l 225 230 l 32 0 z"},")":{"x_min":0,"x_max":266,"ha":266,"o":"m -70 -158 q 5 -80 60 13 q 116 106 147 212 q 178 317 178 430 q 178 512 162 583 q 146 654 116 714 l 164 714 q 197 656 214 584 q 232 512 232 430 q 232 250 166 102 q 99 -46 -13 -158 z"},"&":{"x_min":0,"x_max":678,"ha":678,"o":"m 220 -10 q 141 -10 90 34 q 40 77 40 157 q 40 217 66 260 q 91 302 138 334 q 184 367 246 396 q 220 433 204 470 q 188 508 188 548 q 188 598 210 638 q 233 679 274 702 q 316 725 374 725 q 439 725 480 688 q 521 650 521 590 q 521 536 494 500 q 467 463 422 436 q 376 409 320 382 l 474 167 q 508 199 537 242 q 566 286 585 333 l 642 333 q 616 272 581 221 q 546 170 503 127 l 595 0 l 528 0 l 464 92 q 413 47 356 18 q 300 -10 220 -10 z m 294 418 q 331 435 370 456 q 410 478 438 509 q 465 540 465 586 q 465 626 438 652 q 412 677 370 677 q 314 677 279 643 q 244 609 244 548 q 244 515 256 484 q 269 452 294 418 z m 230 39 q 295 39 342 64 q 390 90 436 130 l 272 360 q 222 336 182 310 q 142 283 119 248 q 96 212 96 161 q 96 103 135 71 q 174 39 230 39 z"},"_":{"x_min":0,"x_max":383,"ha":383,"o":"m -88 -146 l -78 -100 l 306 -100 l 296 -146 z"},"v":{"x_min":0,"x_max":438,"ha":438,"o":"m 121 0 l 49 532 l 106 532 l 150 188 q 155 152 158 113 q 161 74 162 51 l 165 51 q 179 82 198 120 q 216 158 234 189 l 426 532 l 487 532 l 189 0 z"},"O":{"x_min":0,"x_max":718,"ha":718,"o":"m 336 -10 q 247 -10 190 26 q 133 63 106 126 q 78 190 78 272 q 78 359 100 440 q 123 521 168 586 q 213 650 279 688 q 345 725 432 725 q 548 725 616 654 q 683 582 683 445 q 683 385 671 321 q 659 257 633 198 q 607 139 566 92 q 525 45 468 18 q 411 -10 336 -10 z m 338 42 q 412 42 466 79 q 519 116 554 176 q 589 237 606 308 q 622 378 622 446 q 622 552 572 612 q 523 673 428 673 q 354 673 300 638 q 245 603 210 544 q 174 486 156 416 q 139 345 139 273 q 139 168 188 105 q 238 42 338 42 z"},"(":{"x_min":0,"x_max":266,"ha":266,"o":"m 104 -158 q 71 -100 54 -28 q 36 44 36 126 q 36 306 103 454 q 170 602 282 714 l 339 714 q 264 636 208 543 q 152 450 122 344 q 91 239 91 126 q 91 -37 153 -158 z"},"C":{"x_min":0,"x_max":590,"ha":590,"o":"m 326 -10 q 209 -10 144 64 q 78 139 78 266 q 78 358 104 440 q 131 523 182 586 q 232 650 304 687 q 375 724 464 724 q 562 724 632 686 l 608 636 q 546 672 464 672 q 389 672 328 640 q 268 608 226 552 q 183 496 160 423 q 138 350 138 268 q 138 163 190 102 q 242 42 334 42 q 380 42 421 50 q 462 58 500 71 l 500 20 q 464 7 422 -2 q 380 -10 326 -10 z"},"W":{"x_min":0,"x_max":841,"ha":841,"o":"m 148 0 l 116 714 l 172 714 l 192 225 q 195 152 192 81 l 195 81 q 208 114 223 152 q 238 190 258 230 l 488 714 l 546 714 l 574 231 q 576 194 577 152 q 578 111 578 79 l 580 79 q 592 111 606 148 q 620 184 638 224 l 856 714 l 917 714 l 592 0 l 536 0 l 506 520 q 504 550 503 580 q 502 609 502 636 l 500 636 q 491 609 480 585 q 470 561 455 529 l 206 0 z"},"A":{"x_min":0,"x_max":554,"ha":554,"o":"m -54 0 l 350 715 l 408 715 l 506 0 l 449 0 l 415 246 l 148 246 l 10 0 z m 176 299 l 408 299 l 379 523 q 375 552 372 586 q 370 620 368 650 l 365 650 q 351 619 334 586 q 318 553 300 521 z"},"f":{"x_min":0,"x_max":291,"ha":291,"o":"m -60 -240 q -97 -240 -122 -230 l -122 -180 q -108 -184 -93 -188 q -78 -191 -64 -191 q -28 -191 -7 -164 q 14 -137 25 -85 l 146 486 l 52 486 l 58 516 l 156 534 l 170 598 q 190 686 230 726 q 269 765 343 765 q 367 765 390 760 q 413 756 428 749 l 412 703 q 397 709 380 712 q 364 716 344 716 q 294 716 267 689 q 240 662 226 596 l 212 532 l 330 532 l 320 486 l 203 486 l 80 -92 q 64 -166 31 -203 q -2 -240 -60 -240 z"},"Q":{"x_min":0,"x_max":718,"ha":718,"o":"m 453 -170 l 343 -10 l 331 -10 q 246 -9 190 27 q 133 63 106 126 q 78 189 78 272 q 78 359 100 440 q 123 521 168 586 q 213 650 279 688 q 345 725 432 725 q 548 725 616 654 q 683 582 683 445 q 683 378 668 306 q 652 234 618 170 q 585 105 532 59 q 479 13 404 -1 l 528 -170 z m 338 42 q 413 42 466 79 q 520 116 554 176 q 589 237 606 308 q 622 378 622 446 q 622 552 572 612 q 523 673 428 673 q 354 673 300 638 q 245 603 210 544 q 174 486 156 416 q 139 345 139 273 q 139 168 188 105 q 238 42 338 42 z"},"w":{"x_min":0,"x_max":687,"ha":687,"o":"m 83 0 l 56 532 l 111 532 l 126 203 q 128 156 128 120 q 128 85 126 59 l 130 59 q 140 87 155 122 q 170 156 190 194 l 357 532 l 414 532 l 442 202 q 445 164 446 127 q 448 90 448 59 l 450 59 q 460 90 476 128 q 492 166 514 214 l 661 532 l 721 532 l 472 0 l 407 0 l 380 340 q 377 372 376 401 q 376 430 375 467 l 372 467 q 359 435 348 408 q 336 382 318 344 l 146 0 z"},"-":{"x_min":0,"x_max":312,"ha":312,"o":"m 32 243 l 44 296 l 277 296 l 266 243 z"},"E":{"x_min":0,"x_max":524,"ha":524,"o":"m 46 0 l 196 714 l 556 714 l 546 662 l 244 662 l 188 400 l 472 400 l 462 349 l 178 349 l 114 52 l 416 52 l 406 0 z"},"s":{"x_min":0,"x_max":428,"ha":428,"o":"m 160 -10 q 109 -10 72 1 q 34 12 9 26 l 9 81 q 37 64 76 51 q 115 38 158 38 q 228 38 262 67 q 296 96 296 141 q 296 181 268 204 q 240 226 194 252 q 140 282 107 313 q 74 344 74 396 q 74 466 124 504 q 175 542 252 542 q 300 542 339 532 q 378 522 406 508 l 387 461 q 361 474 326 483 q 292 492 252 492 q 199 492 166 469 q 132 446 132 400 q 132 364 157 342 q 182 321 231 295 q 264 276 292 257 q 320 238 337 212 q 354 186 354 146 q 354 76 304 33 q 254 -10 160 -10 z"},">":{"x_min":0,"x_max":571,"ha":571,"o":"m 73 179 l 473 356 l 73 545 l 73 597 l 538 372 l 538 338 l 73 127 z"},"l":{"x_min":0,"x_max":232,"ha":232,"o":"m 30 0 l 191 760 l 248 760 l 86 0 z"},"8":{"x_min":0,"x_max":550,"ha":550,"o":"m 242 -10 q 180 -10 136 13 q 92 36 69 75 q 46 114 46 164 q 46 221 72 262 q 99 302 146 330 q 193 359 254 380 q 213 408 184 445 q 155 482 155 540 q 155 597 182 638 q 209 679 256 702 q 302 724 361 724 q 418 724 457 703 q 496 682 516 648 q 536 614 536 574 q 536 520 512 482 q 487 445 446 418 q 404 392 354 372 q 408 342 444 302 q 480 262 480 192 q 480 132 451 86 q 422 41 368 16 q 315 -10 242 -10 z m 310 400 q 386 428 432 466 q 478 505 478 569 q 478 618 444 646 q 410 675 357 675 q 294 675 253 640 q 212 604 212 540 q 212 490 239 458 q 266 426 310 400 z m 247 39 q 325 39 374 80 q 422 122 422 190 q 422 250 390 284 q 357 319 300 351 q 247 334 202 312 q 158 289 131 254 q 104 220 104 166 q 104 106 144 72 q 185 39 247 39 z"},"\\":{"x_min":0,"x_max":331,"ha":331,"o":"m 221 0 l 103 714 l 155 714 l 272 0 z"},"e":{"x_min":0,"x_max":495,"ha":495,"o":"m 244 -10 q 162 -10 108 41 q 55 92 55 193 q 55 261 74 324 q 94 386 130 436 q 166 485 216 514 q 265 542 324 542 q 390 542 427 510 q 464 477 464 422 q 464 334 378 289 q 292 244 142 244 l 116 244 q 113 223 113 194 q 113 120 150 80 q 186 39 254 39 q 294 39 328 50 q 363 61 395 76 l 395 26 q 365 11 328 0 q 290 -10 244 -10 z m 124 292 l 152 292 q 224 292 282 304 q 339 317 373 345 q 407 373 407 418 q 407 451 386 472 q 364 493 320 493 q 280 493 240 470 q 201 446 170 401 q 139 356 124 292 z"},"b":{"x_min":0,"x_max":574,"ha":574,"o":"m 254 -10 q 211 -10 181 6 q 151 22 134 48 q 116 74 108 102 l 104 102 l 74 0 l 30 0 l 191 760 l 248 760 l 206 562 q 197 520 186 476 q 175 433 170 412 l 172 412 q 194 444 222 474 q 251 504 288 523 q 325 542 370 542 q 439 542 480 493 q 522 444 522 356 q 522 289 504 224 q 487 159 453 106 q 419 53 369 22 q 319 -10 254 -10 z m 251 39 q 302 39 342 66 q 381 94 408 140 q 435 187 449 244 q 463 300 463 357 q 463 422 434 457 q 406 492 354 492 q 310 492 270 465 q 229 438 198 392 q 166 346 148 288 q 130 231 130 170 q 130 107 162 73 q 194 39 251 39 z"},"%":{"x_min":0,"x_max":781,"ha":781,"o":"m 192 276 q 140 276 112 310 q 83 345 83 414 q 83 446 88 486 q 94 527 107 568 q 120 610 142 646 q 163 681 194 702 q 226 724 269 724 q 378 724 378 591 q 378 561 372 520 q 366 480 353 438 q 340 395 318 358 q 297 322 266 299 q 235 276 192 276 z m 116 0 l 645 714 l 699 714 l 170 0 z m 196 322 q 226 322 248 342 q 270 362 286 394 q 301 425 310 461 q 320 497 324 530 q 328 564 328 587 q 328 635 312 657 q 297 679 266 679 q 236 679 214 660 q 191 641 176 610 q 160 580 150 544 q 141 509 136 475 q 132 441 132 416 q 132 322 196 322 z m 544 -11 q 493 -11 464 24 q 436 58 436 127 q 436 159 442 200 q 448 241 461 282 q 474 324 496 359 q 517 394 548 416 q 579 437 622 437 q 732 437 732 304 q 732 274 726 234 q 720 193 706 150 q 693 108 672 72 q 650 35 618 12 q 587 -11 544 -11 z m 548 34 q 578 34 600 54 q 623 74 638 106 q 654 137 664 174 q 673 210 678 244 q 682 277 682 300 q 682 348 666 370 q 650 392 618 392 q 589 392 567 373 q 545 354 530 324 q 514 293 504 258 q 495 222 490 188 q 486 154 486 129 q 486 34 548 34 z"},"m":{"x_min":0,"x_max":858,"ha":858,"o":"m 30 0 l 143 532 l 190 532 l 170 413 l 174 413 q 190 442 216 472 q 242 501 277 522 q 312 542 358 542 q 420 542 448 506 q 477 470 478 408 l 481 408 q 499 439 526 470 q 554 501 591 522 q 628 542 674 542 q 734 542 767 508 q 800 475 800 411 q 800 373 791 334 l 720 0 l 663 0 l 736 340 q 740 360 742 376 q 744 391 744 405 q 744 492 658 492 q 616 492 576 462 q 536 433 504 380 q 472 328 458 258 l 403 0 l 346 0 l 417 333 q 422 355 424 374 q 426 392 426 404 q 426 446 405 469 q 384 492 342 492 q 301 492 260 463 q 220 434 188 380 q 156 326 140 252 l 87 0 z"},"#":{"x_min":0,"x_max":630,"ha":630,"o":"m 102 0 l 164 218 l 32 218 l 36 263 l 176 263 l 232 450 l 93 450 l 97 494 l 244 494 l 307 714 l 356 714 l 292 494 l 458 494 l 522 714 l 568 714 l 505 494 l 639 494 l 634 450 l 492 450 l 439 263 l 580 263 l 576 218 l 426 218 l 362 0 l 314 0 l 379 218 l 212 218 l 149 0 z m 225 263 l 392 263 l 444 450 l 279 450 z"},",":{"x_min":0,"x_max":219,"ha":219,"o":"m -44 -129 q -12 -63 13 0 q 38 62 58 116 l 119 116 l 122 104 q 99 50 66 -13 q 34 -76 1 -129 z"},"n":{"x_min":0,"x_max":566,"ha":566,"o":"m 28 -1 l 142 534 l 192 534 l 172 414 l 173 414 q 190 442 218 472 q 247 502 286 523 q 324 544 373 544 q 438 544 474 510 q 510 475 510 411 q 510 392 507 372 q 504 351 500 334 l 428 -1 l 368 -1 l 441 341 q 445 360 448 375 q 450 390 450 404 q 450 448 426 470 q 402 491 359 491 q 314 491 270 462 q 226 434 192 380 q 158 327 142 252 l 88 -1 z"},"h":{"x_min":0,"x_max":566,"ha":566,"o":"m 30 0 l 191 760 l 248 760 l 205 560 q 198 524 188 486 q 179 448 170 412 l 173 412 q 192 441 220 471 q 248 501 286 522 q 324 542 373 542 q 437 542 472 508 q 508 474 508 408 q 508 392 505 373 q 502 354 498 334 l 428 0 l 370 0 l 442 340 q 446 360 448 375 q 450 390 450 403 q 450 492 359 492 q 314 492 270 463 q 225 434 190 380 q 156 327 140 252 l 87 0 z"},"z":{"x_min":0,"x_max":440,"ha":440,"o":"m -14 0 l -7 38 l 360 486 l 104 486 l 114 532 l 438 532 l 429 489 l 63 45 l 347 45 l 338 0 z"},"B":{"x_min":0,"x_max":599,"ha":599,"o":"m 46 0 l 196 714 l 380 714 q 584 714 584 560 q 584 484 540 436 q 495 388 419 374 l 418 370 q 472 356 504 319 q 536 282 536 222 q 536 147 499 98 q 462 48 398 24 q 335 0 254 0 z m 188 399 l 328 399 q 413 399 468 437 q 524 475 524 555 q 524 608 487 636 q 450 663 371 663 l 244 663 z m 114 50 l 262 50 q 324 50 372 68 q 420 87 448 126 q 475 164 475 222 q 475 284 434 317 q 394 350 314 350 l 178 350 z"},"K":{"x_min":0,"x_max":552,"ha":552,"o":"m 46 0 l 196 714 l 254 714 l 176 346 l 236 404 l 568 714 l 640 714 l 312 407 l 497 0 l 433 0 l 268 371 l 164 288 l 103 0 z"},"R":{"x_min":0,"x_max":568,"ha":568,"o":"m 46 0 l 196 714 l 348 714 q 564 714 564 541 q 564 455 518 398 q 472 342 374 320 l 492 0 l 428 0 l 320 308 l 168 308 l 103 0 z m 179 358 l 294 358 q 392 358 448 404 q 504 450 504 538 q 504 604 464 633 q 423 662 342 662 l 244 662 z"},"T":{"x_min":0,"x_max":493,"ha":493,"o":"m 162 0 l 302 662 l 92 662 l 102 714 l 582 714 l 572 662 l 361 662 l 220 0 z"},"P":{"x_min":0,"x_max":562,"ha":562,"o":"m 46 0 l 196 714 l 354 714 q 461 714 512 666 q 562 618 562 533 q 562 421 489 356 q 416 292 268 292 l 165 292 l 103 0 z m 176 342 l 276 342 q 389 342 446 392 q 504 441 504 531 q 504 601 464 632 q 423 663 346 663 l 244 663 z"},"|":{"x_min":0,"x_max":543,"ha":543,"o":"m 271 -241 l 271 760 l 320 760 l 320 -241 z"},"t":{"x_min":0,"x_max":320,"ha":320,"o":"m 166 -10 q 114 -10 84 15 q 54 40 54 94 q 54 108 56 125 q 58 142 62 159 l 131 486 l 51 486 l 58 517 l 141 538 l 189 658 l 226 658 l 198 532 l 347 532 l 337 486 l 188 486 l 119 160 q 116 145 114 130 q 111 114 111 100 q 111 72 126 55 q 140 38 172 38 q 193 38 211 42 q 229 45 246 51 l 246 5 q 232 0 210 -5 q 189 -10 166 -10 z"},"M":{"x_min":0,"x_max":824,"ha":824,"o":"m 45 0 l 196 714 l 278 714 l 372 89 l 375 89 l 733 714 l 822 714 l 673 0 l 615 0 l 724 513 q 741 595 756 652 l 754 652 l 379 0 l 334 0 l 236 652 l 232 652 q 229 625 222 588 q 216 550 209 513 l 100 0 z"},"g":{"x_min":0,"x_max":574,"ha":574,"o":"m 179 -240 q 133 -240 94 -230 q 54 -220 26 -206 l 26 -152 q 53 -167 96 -179 q 138 -191 178 -191 q 258 -191 302 -150 q 347 -109 364 -30 l 374 9 q 378 28 384 51 q 389 74 394 93 q 398 112 401 122 l 398 122 q 376 89 346 58 q 316 28 279 9 q 242 -10 198 -10 q 126 -10 88 39 q 50 88 50 176 q 50 243 68 308 q 85 373 119 426 q 153 479 203 510 q 253 542 318 542 q 361 542 390 526 q 420 509 438 484 q 456 458 464 430 l 466 430 l 496 532 l 541 532 l 421 -30 q 399 -134 340 -187 q 282 -240 179 -240 z m 214 39 q 254 39 294 65 q 334 91 367 136 q 400 181 420 239 q 440 297 440 361 q 440 424 410 458 q 379 492 321 492 q 270 492 230 464 q 191 437 164 391 q 136 345 122 288 q 108 232 108 174 q 108 110 134 74 q 160 39 214 39 z"},"j":{"x_min":0,"x_max":232,"ha":232,"o":"m 200 642 q 185 642 176 651 q 166 660 166 676 q 166 696 177 712 q 188 728 210 728 q 228 728 236 718 q 244 709 244 695 q 244 673 231 658 q 218 642 200 642 z m -75 -240 q -111 -240 -134 -230 l -134 -180 q -109 -191 -77 -191 q -42 -191 -20 -166 q 1 -140 11 -92 l 143 532 l 200 532 l 66 -98 q 52 -166 19 -203 q -14 -240 -75 -240 z"},"i":{"x_min":0,"x_max":232,"ha":232,"o":"m 201 642 q 185 642 176 651 q 166 660 166 676 q 166 696 177 712 q 188 728 210 728 q 228 728 236 718 q 244 709 244 695 q 244 673 231 658 q 218 642 201 642 z m 30 0 l 143 532 l 200 532 l 87 0 z"},"y":{"x_min":0,"x_max":438,"ha":438,"o":"m -41 -242 q -63 -242 -77 -239 q -91 -236 -104 -232 l -104 -183 q -91 -188 -76 -190 q -62 -193 -43 -193 q -5 -193 24 -166 q 54 -140 84 -86 l 134 0 l 49 532 l 106 532 l 153 221 q 160 174 164 128 q 168 81 170 54 l 172 54 q 179 70 191 96 q 203 121 218 150 q 232 180 246 205 l 426 532 l 487 532 l 136 -102 q 98 -170 58 -206 q 18 -242 -41 -242 z"},"@":{"x_min":0,"x_max":841,"ha":841,"o":"m 380 -90 q 288 -90 214 -52 q 140 -14 97 60 q 54 135 54 244 q 54 333 85 416 q 116 500 176 566 q 235 632 322 671 q 408 710 520 710 q 617 710 682 671 q 748 632 781 565 q 814 498 814 414 q 814 328 787 258 q 760 188 713 147 q 666 106 606 106 q 556 106 535 132 q 514 158 512 202 l 510 202 q 485 158 448 132 q 410 106 360 106 q 308 106 275 140 q 242 175 242 238 q 242 318 276 380 q 310 442 367 477 q 424 512 491 512 q 532 512 563 504 q 594 496 620 486 l 578 326 q 568 287 562 262 q 556 236 556 217 q 556 150 610 150 q 653 150 688 186 q 723 223 744 282 q 764 342 764 410 q 764 483 737 540 q 710 598 654 631 q 598 664 512 664 q 417 664 342 631 q 266 598 213 540 q 160 482 132 406 q 105 331 105 246 q 105 151 141 86 q 177 21 240 -12 q 304 -45 386 -45 q 437 -45 488 -35 q 540 -25 587 -7 l 587 -52 q 538 -70 486 -80 q 434 -90 380 -90 z m 370 150 q 426 150 464 196 q 503 241 525 320 l 561 455 q 547 460 528 464 q 508 468 484 468 q 432 468 389 439 q 346 410 320 359 q 294 308 294 242 q 294 196 314 173 q 334 150 370 150 z"},".":{"x_min":0,"x_max":233,"ha":233,"o":"m 64 -11 q 26 -11 26 26 q 26 49 39 68 q 52 87 80 87 q 115 87 115 50 q 115 28 102 8 q 90 -11 64 -11 z"},"p":{"x_min":0,"x_max":574,"ha":574,"o":"m -20 -236 l 143 532 l 190 532 l 170 412 l 173 412 q 194 444 223 474 q 252 504 289 523 q 326 542 371 542 q 439 542 480 493 q 522 444 522 356 q 522 289 504 224 q 487 159 453 106 q 419 53 369 22 q 319 -10 254 -10 q 190 -10 155 24 q 120 58 108 102 l 104 102 q 100 76 94 44 q 89 13 84 -12 l 37 -236 z m 251 39 q 302 39 342 66 q 381 94 408 140 q 435 187 449 244 q 463 300 463 357 q 463 422 434 457 q 406 492 354 492 q 311 492 271 466 q 231 439 199 394 q 167 348 148 290 q 130 232 130 170 q 130 107 162 73 q 194 39 251 39 z"},"X":{"x_min":0,"x_max":508,"ha":508,"o":"m -56 0 l 245 375 l 114 714 l 172 714 l 284 416 l 522 714 l 586 714 l 310 372 l 452 0 l 392 0 l 270 330 l 9 0 z"},"*":{"x_min":0,"x_max":541,"ha":541,"o":"m 384 319 l 318 512 l 182 358 l 142 399 l 294 534 l 115 609 l 136 660 l 313 562 l 342 760 l 399 748 l 345 555 l 549 574 l 546 518 l 352 522 l 439 338 z"},"Y":{"x_min":0,"x_max":497,"ha":497,"o":"m 162 0 l 220 270 l 94 714 l 152 714 l 258 328 l 524 714 l 590 714 l 277 270 l 220 0 z"},"c":{"x_min":0,"x_max":452,"ha":452,"o":"m 247 -10 q 156 -10 104 44 q 52 98 52 192 q 52 262 71 326 q 90 389 126 438 q 162 486 214 514 q 266 542 332 542 q 404 542 460 517 l 443 468 q 420 478 391 485 q 362 492 332 492 q 264 492 214 452 q 165 411 138 344 q 110 276 110 194 q 110 126 146 82 q 183 39 252 39 q 288 39 318 48 q 349 56 380 70 l 380 20 q 354 7 321 -2 q 288 -10 247 -10 z"},"!":{"x_min":0,"x_max":236,"ha":236,"o":"m 77 188 l 180 714 l 247 714 l 124 188 z m 64 -11 q 26 -11 26 27 q 26 50 38 68 q 51 87 78 87 q 95 87 105 76 q 115 66 115 49 q 115 28 102 8 q 90 -11 64 -11 z"},"/":{"x_min":0,"x_max":331,"ha":331,"o":"m -44 0 l 357 714 l 416 714 l 15 0 z"},"[":{"x_min":0,"x_max":296,"ha":296,"o":"m -9 -158 l 177 714 l 370 714 l 358 664 l 221 664 l 57 -108 l 196 -108 l 184 -158 z"},"6":{"x_min":0,"x_max":550,"ha":550,"o":"m 252 -10 q 159 -10 112 50 q 66 109 66 209 q 66 261 76 320 q 87 378 107 436 q 127 495 156 546 q 186 598 224 636 q 269 681 327 703 q 385 725 451 725 q 507 725 544 712 l 532 662 q 516 668 494 672 q 473 675 446 675 q 378 675 318 642 q 258 610 212 538 q 165 465 137 344 l 140 344 q 168 384 216 414 q 264 444 331 444 q 406 444 451 396 q 496 349 496 268 q 496 194 466 130 q 435 67 380 28 q 325 -10 252 -10 z m 256 39 q 312 39 353 72 q 394 105 416 156 q 438 208 438 264 q 438 327 406 362 q 374 396 314 396 q 267 396 228 376 q 190 355 165 326 q 140 296 132 268 q 127 254 124 236 q 122 218 122 200 q 122 162 134 124 q 146 87 175 63 q 204 39 256 39 z"},"r":{"x_min":0,"x_max":384,"ha":384,"o":"m 30 0 l 143 532 l 190 532 l 170 413 l 174 413 q 192 442 218 472 q 244 501 278 521 q 312 541 354 541 q 369 541 384 539 q 399 537 412 534 l 400 482 q 376 488 348 488 q 300 488 257 455 q 214 422 184 369 q 154 316 141 256 l 87 0 z"},"2":{"x_min":0,"x_max":550,"ha":550,"o":"m 6 0 l 16 49 l 262 271 q 318 322 362 366 q 406 411 432 458 q 458 505 458 563 q 458 614 427 644 q 396 674 341 674 q 298 674 258 657 q 218 640 178 611 l 150 651 q 196 686 245 705 q 294 724 346 724 q 427 724 472 681 q 518 638 518 570 q 518 507 492 454 q 466 402 418 350 q 369 299 300 238 l 93 55 l 93 52 l 442 52 l 432 0 z"},"{":{"x_min":0,"x_max":338,"ha":338,"o":"m 208 -158 q 138 -158 104 -134 q 70 -109 70 -54 q 70 -40 72 -26 q 75 -12 78 4 l 109 142 q 112 156 114 168 q 116 180 116 190 q 116 257 19 257 l 30 306 q 89 306 121 330 q 153 353 165 411 l 200 576 q 216 650 259 682 q 302 714 379 714 l 391 714 l 381 665 q 328 664 296 644 q 265 624 253 568 l 218 406 q 207 355 181 322 q 155 289 104 280 l 104 278 q 138 268 153 245 q 168 222 168 188 q 168 176 166 162 q 165 147 161 133 l 132 -2 q 129 -15 127 -26 q 125 -37 125 -46 q 125 -84 148 -96 q 172 -109 218 -109 l 218 -158 z"},"9":{"x_min":0,"x_max":550,"ha":550,"o":"m 165 -10 q 97 -10 47 6 l 47 61 q 70 53 101 46 q 132 40 166 40 q 262 40 336 116 q 410 193 450 365 l 446 365 q 420 327 374 298 q 328 270 264 270 q 183 270 138 318 q 94 367 94 448 q 94 524 126 587 q 157 650 212 687 q 268 724 339 724 q 430 724 476 665 q 522 606 522 506 q 522 453 511 392 q 500 332 480 272 q 460 213 432 162 q 403 110 368 75 q 324 30 272 10 q 220 -10 165 -10 z m 274 318 q 319 318 356 336 q 393 353 419 382 q 445 410 456 445 q 460 459 463 476 q 466 493 466 514 q 466 558 452 594 q 439 630 410 652 q 382 674 336 674 q 278 674 236 642 q 195 611 172 560 q 150 509 150 450 q 150 388 183 353 q 216 318 274 318 z"}," ":{"x_min":0,"x_max":260,"ha":260,"o":""},"I":{"x_min":0,"x_max":302,"ha":302,"o":"m -6 0 l 1 34 l 76 46 l 208 668 l 138 679 l 145 714 l 349 714 l 342 679 l 266 668 l 133 46 l 205 34 l 198 0 z"},"H":{"x_min":0,"x_max":680,"ha":680,"o":"m 46 0 l 197 714 l 255 714 l 188 400 l 556 400 l 622 714 l 680 714 l 529 0 l 472 0 l 545 348 l 178 348 l 104 0 z"},"4":{"x_min":0,"x_max":550,"ha":550,"o":"m 309 0 l 347 178 l 11 178 l 20 227 l 450 716 l 516 716 l 414 230 l 532 230 l 521 178 l 402 178 l 364 0 z m 84 230 l 358 230 l 408 468 q 421 526 433 572 q 445 618 454 655 l 452 655 q 436 632 417 608 q 398 584 378 562 z"},"~":{"x_min":0,"x_max":571,"ha":571,"o":"m 296 330 q 264 345 240 352 q 216 360 188 360 q 128 360 73 302 l 73 357 q 96 381 127 394 q 158 408 192 408 q 226 408 254 400 q 281 392 318 375 q 350 361 374 354 q 397 346 423 346 q 451 346 481 360 q 511 374 538 402 l 538 350 q 516 326 486 312 q 456 298 420 298 q 388 298 361 306 q 334 314 296 330 z"},"D":{"x_min":0,"x_max":672,"ha":672,"o":"m 46 0 l 196 714 l 354 714 q 486 714 561 643 q 636 572 636 427 q 636 340 609 262 q 582 185 528 126 q 474 67 394 34 q 313 0 206 0 z m 114 51 l 210 51 q 300 51 368 80 q 436 110 482 162 q 529 214 552 282 q 576 350 576 428 q 576 550 514 606 q 452 663 343 663 l 244 663 z"},"^":{"x_min":0,"x_max":561,"ha":561,"o":"m 44 272 l 306 719 l 343 719 l 519 272 l 468 272 l 322 656 l 99 272 z"},"0":{"x_min":0,"x_max":550,"ha":550,"o":"m 236 -10 q 154 -10 108 48 q 62 107 62 218 q 62 280 72 350 q 83 420 104 486 q 126 553 160 607 q 195 661 244 693 q 292 725 356 725 q 445 725 488 668 q 531 610 531 508 q 531 435 520 361 q 508 287 485 220 q 462 154 427 102 q 392 50 344 20 q 297 -10 236 -10 z m 242 40 q 288 40 324 68 q 361 96 388 144 q 416 192 434 252 q 453 313 462 379 q 472 445 472 508 q 472 588 444 632 q 415 675 354 675 q 306 675 268 646 q 231 618 202 570 q 174 521 156 462 q 137 402 128 339 q 119 276 119 218 q 119 40 242 40 z"},"F":{"x_min":0,"x_max":482,"ha":482,"o":"m 46 0 l 196 714 l 557 714 l 546 662 l 244 662 l 182 368 l 466 368 l 455 316 l 170 316 l 103 0 z"},"`":{"x_min":0,"x_max":252,"ha":252,"o":"m 250 606 q 233 624 212 652 q 192 680 174 708 q 156 736 146 756 l 146 766 l 208 766 q 221 728 244 687 q 266 646 284 618 l 284 606 z"},"k":{"x_min":0,"x_max":467,"ha":467,"o":"m 30 0 l 190 760 l 248 760 l 176 421 q 162 356 151 314 q 140 272 132 240 l 133 240 l 432 532 l 501 532 l 264 302 l 411 0 l 348 0 l 220 266 l 125 183 l 87 0 z"},"u":{"x_min":0,"x_max":566,"ha":566,"o":"m 190 -10 q 127 -10 91 24 q 55 58 55 122 q 55 140 58 159 q 60 178 64 198 l 136 532 l 193 532 l 120 191 q 116 172 114 156 q 112 141 112 128 q 112 39 204 39 q 249 39 294 68 q 338 97 372 151 q 407 205 423 280 l 476 532 l 533 532 l 420 0 l 373 0 l 392 119 l 389 119 q 372 91 344 61 q 315 31 276 10 q 238 -10 190 -10 z"},"]":{"x_min":0,"x_max":296,"ha":296,"o":"m -72 -158 l -62 -108 l 76 -108 l 240 664 l 102 664 l 113 714 l 306 714 l 120 -158 z"},"U":{"x_min":0,"x_max":684,"ha":684,"o":"m 300 -10 q 196 -10 140 41 q 84 92 84 186 q 84 202 86 223 q 89 244 94 268 l 188 714 l 246 714 l 152 267 q 148 246 145 224 q 142 203 142 187 q 142 117 184 80 q 226 42 303 42 q 398 42 455 95 q 512 148 534 254 l 632 714 l 690 714 l 592 248 q 565 120 493 55 q 421 -10 300 -10 z"},"o":{"x_min":0,"x_max":564,"ha":564,"o":"m 242 -9 q 150 -9 101 47 q 52 103 52 195 q 52 265 71 328 q 90 390 126 438 q 161 485 211 512 q 261 540 324 540 q 414 540 464 484 q 513 428 513 337 q 513 271 496 209 q 478 147 444 98 q 409 49 358 20 q 308 -9 242 -9 z m 246 40 q 308 40 355 78 q 402 117 428 185 q 454 253 454 342 q 454 382 440 416 q 426 450 397 471 q 368 492 323 492 q 260 492 212 454 q 164 415 136 348 q 109 280 109 194 q 109 122 144 81 q 179 40 246 40 z"},"N":{"x_min":0,"x_max":690,"ha":690,"o":"m 45 0 l 196 714 l 253 714 l 504 89 l 506 89 q 512 126 521 174 q 530 223 540 266 l 635 714 l 690 714 l 540 0 l 482 0 l 230 626 l 228 626 q 222 588 213 540 q 204 492 194 445 l 100 0 z"},"+":{"x_min":0,"x_max":571,"ha":571,"o":"m 329 376 l 538 376 l 538 329 l 329 329 l 329 117 l 281 117 l 281 329 l 72 329 l 72 376 l 281 376 l 281 589 l 329 589 z"},"G":{"x_min":0,"x_max":684,"ha":684,"o":"m 338 -10 q 214 -10 146 63 q 78 136 78 263 q 78 365 107 450 q 136 534 188 596 q 240 657 310 690 q 379 724 460 724 q 522 724 571 713 q 620 702 664 682 l 642 630 q 602 648 556 660 q 511 672 460 672 q 393 672 335 643 q 277 614 232 560 q 188 506 163 432 q 138 357 138 266 q 138 160 192 101 q 246 42 343 42 q 389 42 430 50 q 472 58 503 70 l 555 312 l 384 312 l 396 363 l 624 363 l 552 32 q 505 12 450 1 q 396 -10 338 -10 z"},"q":{"x_min":0,"x_max":574,"ha":574,"o":"m 321 -236 l 368 -14 q 372 5 378 32 q 385 59 392 84 q 398 109 401 122 l 398 122 q 377 90 347 60 q 317 29 280 10 q 242 -10 198 -10 q 127 -10 88 39 q 50 88 50 176 q 50 243 68 308 q 85 373 119 426 q 153 479 203 510 q 253 542 318 542 q 361 542 390 526 q 420 509 438 484 q 456 458 463 430 l 466 430 l 496 532 l 540 532 l 378 -236 z m 214 39 q 255 39 296 66 q 336 92 368 138 q 401 184 420 242 q 440 299 440 361 q 440 422 408 457 q 377 492 321 492 q 270 492 230 464 q 191 437 164 391 q 136 345 122 288 q 108 232 108 174 q 108 110 134 74 q 159 39 214 39 z"},"d":{"x_min":0,"x_max":574,"ha":574,"o":"m 197 -10 q 126 -10 88 39 q 50 88 50 176 q 50 243 68 308 q 85 373 119 426 q 153 479 203 510 q 253 542 318 542 q 361 542 390 526 q 420 509 438 484 q 456 458 463 430 l 466 430 q 471 464 476 497 q 482 530 490 564 l 532 760 l 588 760 l 428 0 l 380 0 l 400 120 l 397 120 q 374 88 344 58 q 315 28 278 9 q 242 -10 197 -10 z m 213 39 q 253 39 293 65 q 333 91 366 136 q 400 180 420 238 q 440 296 440 361 q 440 424 408 458 q 377 492 320 492 q 269 492 230 464 q 191 437 164 391 q 136 345 122 288 q 108 232 108 174 q 108 109 134 74 q 160 39 213 39 z"},"1":{"x_min":0,"x_max":550,"ha":550,"o":"m 216 0 l 322 502 q 332 547 341 586 q 350 624 358 650 q 331 626 294 601 l 182 528 l 154 572 l 374 714 l 426 714 l 274 0 z"},"5":{"x_min":0,"x_max":550,"ha":550,"o":"m 203 -10 q 154 -10 110 1 q 67 12 38 30 l 38 88 q 70 66 114 52 q 158 39 204 39 q 304 39 363 94 q 422 148 422 242 q 422 308 383 346 q 344 384 273 384 q 236 384 207 378 q 178 373 143 364 l 117 386 l 214 714 l 536 714 l 526 662 l 252 662 l 180 418 q 201 422 228 427 q 254 432 289 432 q 375 432 428 382 q 481 332 481 248 q 481 174 449 116 q 417 58 355 24 q 293 -10 203 -10 z"}}}
